<svg xmlns="http://www.w3.org/2000/svg" version="1.0" viewBox="0 0 300 272"><path d="M136.6 45c-.4 19.2-.5 35.4-.1 36 .3.6 2.2 1.7 4 2.4 4.5 1.9 4.8 3.9 4.3 30.4-.4 24.3-.9 26.4-7.8 30.9-7.3 5-15.4 1.8-20-8.1-7.3-15.5-12.6-32.8-11.7-38.1.3-1.8 2-5.2 3.7-7.7 3.9-5.5 5-14.4 3-22.9-1.6-6.7-6.9-18.4-10.9-24.3-7.5-10.8-18.7-18.3-25.5-17.1-9.7 1.9-14.9 17.2-12.1 35.8 3.3 21.9 10.7 33.8 23.3 37.7 3.6 1.1 7.1 2.8 7.9 3.8 4.5 5.6 15.3 37.9 15.3 45.7 0 4.9-.4 5.9-3.5 9.4-4.3 4.7-9.4 6-14.8 3.8-6.3-2.7-17.8-19-21.2-30.2-3.1-9.9-6.2-15.5-15.2-27.5-9.8-13.1-16.6-19.9-26.8-26.5C14.8 69.6 6 67.7 6 73.6c0 2.6 1.2 4.2 34.5 45.4C76 162.8 78 165.6 82.9 176.1c6.7 14.2 11 29.4 12.7 44.7.4 3.4 1.2 6.6 1.8 6.9 1.2.8 18.9 1.5 31.8 1.4 4.2-.1 7.9.3 8.2.7 1.4 2.3-10 3.5-40.7 4.2-.4 0-.6 5.1-.5 11.3l.3 11.2 53.2.3 53.3.2.4-2.2c.3-1.3.4-6.3.3-11.3l-.2-9-20-.7c-11-.4-21.1-1-22.4-1.3-2.1-.5-2.2-.8-1-2 1-1 6.6-1.6 22.2-2.1 11.4-.4 20.8-1 20.8-1.3.1-.3.3-2 .5-3.6 2.6-23.2 9.8-45.1 19.4-59 3-4.3 20.9-26.8 59.3-74.5 13.8-17.1 14.8-20.6 5.7-19.5-4.1.5-16.6 7.3-23.8 12.9-13.1 10.1-30.1 33.6-34.2 47.1-4 13.1-15.9 30.3-22.5 32.5-4.4 1.5-8.6.8-12.6-2.1-7.3-5.2-7.2-11.3.5-34.4 6.7-20 9-24 14.8-25.6 12.6-3.3 18.4-10.2 23.9-27.9 1.9-6.1 2.4-9.8 2.4-20 0-11.5-.2-13-2.5-17.4-1.4-2.7-3.8-5.8-5.3-7-7.7-5.7-21.1 1.2-30.1 15.3-12.2 19.3-14.8 35.9-7.5 47.4 4.5 7.1 4.3 12-1.2 27.4-6.2 17.4-9.6 24.1-13.3 26.4-6.8 4.1-15.7 1.2-19.5-6.4-1.7-3.4-1.9-6.4-2-27.4-.2-25.4.2-27.8 5.1-28.5l2.3-.3.3-21.3c.2-14.4-.1-21.2-.8-21.2-.7 0-1 4.4-.9 12.9 0 7.1-.2 13.4-.5 13.9-.3.6-.7 3.9-.8 7.5-.1 5.5-.5 6.7-2.2 7.5-1.2.5-3.1 2.8-4.3 5.2-2.6 4.7-2.8 5.4-1.3 4.5.7-.4.6.3 0 2-.6 1.5-1 10.6-.9 20.4 0 13.8.4 18.1 1.6 19.9.8 1.3 1.6 3.3 1.7 4.5.2 2.3 3.5 6.1 8.3 9.5 2 1.4 4.2 1.9 8.1 1.8 4.7-.1 5.8-.5 9.3-3.9 2.1-2.1 3.9-4.4 3.9-5.2 0-.7.5-1.5 1.2-1.7.7-.3 1.3-1.8 1.4-3.4.1-1.6.7-2.8 1.3-2.7.6.2 1.1 0 1.2-.5.5-5.5 2.6-9.1 2.7-4.5 0 1.5-.5 3.1-1 3.4-.6.4-1 1.9-1 3.4 0 1.9-.3 2.3-.9 1.4-.6-1-.9-.7-1 1.1-.1 1.4-.3 3.6-.4 5-1.1 10.7-.2 15.8 3 18.6 1.4 1.2 2.2 2.4 1.8 2.8-.3.3-.1.7.5.7 2.1.2 2.7.4 5.1 1.8 1.6.9 3.5 1 6 .5 2-.4 4.2-.8 4.8-.9.7 0 2.7-1.3 4.4-2.8 1.7-1.5 3.5-2.7 4-2.7s.9-.8.9-1.9c0-1 .9-2.1 2-2.4 1.1-.3 2-1.4 2-2.5 0-1 .9-2.7 1.9-3.6 1.1-1 2.2-2.8 2.5-4.2.4-1.3 1-2.4 1.5-2.4.8 0 1.6-1.7 7.6-17.3 2.1-5.3 4.1-9.7 4.6-9.7.4 0 1.6-1.8 2.7-4 1-2.2 2.1-3.7 2.4-3.5.3.3 1.1-.7 1.9-2.2 1.5-2.8 3-4.6 11.6-13.4C265 86.4 271 81 272 81c.4 0 3.8-1.6 7.5-3.5 7-3.7 12.4-4.5 9.4-1.5-.9.8-1.6 1.9-1.7 2.5-.1.5-.9 1.8-1.7 2.8-.8.9-1.5 2-1.5 2.3 0 1-2.8 3.4-3.9 3.4-.6 0-1.1.8-1.1 1.8 0 .9-1.3 2.8-3 4.2-1.6 1.4-3 2.9-3 3.4s-2.4 3.6-5.3 7c-3 3.4-6.5 7.9-7.9 10.1-1.4 2.2-4.2 5.7-6.2 7.9-2 2.1-3.6 4-3.6 4.2 0 .5-3.8 5-7.7 9.2-1.8 1.8-3.3 3.8-3.3 4.3 0 .9-1.5 2.8-6 7.7-1.4 1.5-3.2 3.9-4 5.5-.7 1.5-1.7 2.7-2.2 2.7-.4 0-.8.7-.8 1.5s-.7 1.5-1.5 1.5-1.5.9-1.5 2-.7 2-1.6 2c-.8 0-2.2 1.6-3 3.5-.8 1.9-1.9 3.5-2.4 3.5s-1.3 1.2-1.6 2.7c-.4 1.6-1.5 4.1-2.4 5.8-.9 1.6-1.5 3.6-1.3 4.2.3.7-.1 1.3-.7 1.3-.7 0-1 .8-.7 2 .3 1.1.1 1.8-.4 1.4-.5-.3-.9.4-.9 1.5s-.4 2.3-1 2.6c-.5.3-1 1.9-1 3.4 0 1.6-.7 4.6-1.6 6.6-.9 2.1-1.4 4.9-1.1 6.2.2 1.3 0 2.3-.5 2.3s-.8 1-.7 2.2c.1 1.3-.1 3-.4 3.8-.3.8-.8 3.4-1 5.8-.3 2.4-.8 4.6-1.1 4.9-.8.8-100.3.9-101.1.1-.4-.4-1-2.8-1.3-5.4-.4-3.6-.2-4.5.8-3.9.9.6.9.2-.1-1.6-1.3-2.4-2-6.3-1.9-10.9 0-1.7-.3-2.1-.9-1.2-.5.9-1-.1-1.5-3-1.3-8.6-8.8-26-15.8-36.5-2.6-3.9-4.4-7.3-4-7.6.4-.2.1-.2-.5-.1-1.4.4-3.9-3.5-3.4-5.1.1-.5-.1-.7-.5-.3-.4.4-1.9-.8-3.3-2.6-1.4-1.9-4.3-5.4-6.4-7.9-2.3-2.8-3.6-5.1-3.1-5.8.4-.7.3-.9-.3-.6-.5.3-3.4-2.4-6.4-6-3-3.7-8.7-10.6-12.6-15.4-4-4.9-7.3-9.2-7.3-9.6 0-.5-.9-1.4-2.1-2.1-1.2-.8-1.8-1.9-1.5-2.8.3-.8.2-1.3-.3-.9-.5.3-2-.9-3.2-2.7-1.3-1.8-2.6-3.5-2.9-3.8-1.6-1.4-8.1-10-7.6-10 .4 0-.6-1.1-2.1-2.4l-2.8-2.4 2.9-1.1c1.9-.8 3.2-.8 4.1-.1.6.5 2.1 1.1 3.3 1.3 1.2.2 2.9 1.2 3.7 2.3.8 1 1.5 1.6 1.5 1.2 0-.4.9 0 2 1 1.1.9 3.8 2.6 6 3.8 2.2 1.2 3.7 2.4 3.3 2.7-.3.4.3 1 1.3 1.4 1 .4 3.7 2.5 5.8 4.7 2.2 2.3 4.4 4 4.8 3.9.4-.2.7 0 .6.5-.3 1.3 5.7 10.1 7 10.2.7 0 2.1 2 3.2 4.4 1 2.4 2.5 4.8 3.3 5.3.8.4 2.2 3.3 3.1 6.4.9 3.1 2.3 6.2 3.1 6.9.9.7 1.3 2.1 1 3.1-.4 1.1.3 2.5 1.6 3.8 1.3 1.2 1.7 2.1 1.1 2.1-.7 0-.3.9.8 2s2.3 3.2 2.6 4.7c1 3.8 3.4 7.4 4.5 6.7.5-.3 1.4.8 2 2.5.6 1.7 1.8 3.1 2.6 3.1.9 0 1.3.6.9 1.5-.3.9 0 1.5 1 1.5.8 0 1.7.7 2 1.5.4.8 1 1.2 1.5.9.5-.3.9 0 .9.6s.4.9.9.6c.5-.3 1.4 0 2 .8.7.9 2.4 1.2 4.4 1 1.8-.2 3.9-.4 4.8-.5 2.6-.1 7.8-5.5 10-10.3 1.8-4.1 2.4-15 .8-14-.4.2-1-.4-1.3-1.3-.4-.9-.2-1.9.4-2.3.6-.4.8-1.4.5-2.2-.4-.9 0-1.8 1-2.2 1-.3 1.5-.1 1.3.7-.3 1.5 2.6 6.9 4.6 8.6.9.7 1.3 1.8.9 2.4-.3.5-.1.7.4.4.6-.4 1.4 0 1.7.9.3.8 1 1.3 1.5 1 .5-.3 1.4.1 2.1.9 2.4 2.9 12.4 0 17.3-4.9 4.1-4.1 4.8-10 4.7-35.5-.1-10.7-.6-20.4-1-21.6-.5-1.2-2-3.1-3.4-4.3-1.4-1.1-2.6-2.7-2.6-3.6 0-.9-.4-1.6-.9-1.6-1.3 0-1.4-62.1-.1-64 .5-.8 1.1-1.3 1.2-1 .1.3.5 12.6.8 27.5.7 35.6 2.2 35.9 3.2.5.5-14.6 1-27.1 1.3-27.8.3-.7.9-1 1.5-.7.6.4 1 10.5 1 27.5 0 25.4.5 29.9 2.8 27.5.7-.6 1.1-13.8 1.1-39.8.1-8.1.5-14.7 1-14.7 1.5 0 2.1 6.3 2.7 31 .3 12.9.7 23.6.9 23.8.2.2.8.1 1.4-.3.7-.4 1.1-8.7 1.1-24.6 0-15.3.4-23.9 1-23.9s1 4.2 1 10.7c0 5.8.2 10.4.4 10.2.2-.2.5-6.7.7-14.4.4-13.9.4-14-1.8-14.3-2.1-.3-2.3 0-2.3 4.7 0 2.7-.4 5.3-1 5.6-.6.3-1-.4-1-1.8s-.3-3.8-.6-5.5c-.6-3-.8-3.1-5.7-3-3.6 0-5.5.5-6.3 1.6-1.2 1.6-1.3 1.6-1.9-.1-.4-.9-1.5-1.7-2.5-1.7-1.6 0-1.8 2.6-2.4 35zM84.4 31.7c.9-.4 2 .1 2.5 1.1.6.9 1.1 1.3 1.1.9 0-.5 1.2.5 2.6 2.2 1.4 1.7 3 2.9 3.5 2.5.5-.3.9.4.9 1.5 0 1.2.6 2.1 1.3 2.1.6 0 2 1.8 3 4 1.1 2.3 2.3 3.7 2.9 3.4.6-.4.8-.3.5.3-.4.6.5 3.3 1.8 6.2 1.4 2.8 2.5 5.6 2.5 6.2 0 .5.5.7 1.2.3.7-.4.8-.3.4.5-.4.6-.2 1.9.6 2.8 1.1 1.4 1.1 1.6-.2.8-1.2-.7-1.3-.6-.3.7.7.8 1 1.8.6 2.1-.3.4-.2.7.4.7.7 0 .9 2.9.8 7.7-.2 5.7-.7 8-1.9 8.9-.9.6-1.6 1.6-1.4 2 .4 1.3-3.4 7.4-4.3 6.9-.3-.3-.5 2.3-.2 5.8.3 3.4.5 7.5.5 9 .1 2.2.5 2.7 1.7 2.2 1.3-.5 1.4-.4.4.6-1.5 1.5-1.7 4.9-.3 4.9.5 0 1.5 1.8 2.1 4 .7 2.2 1.6 4 2 4 .4 0 1.2 1.3 1.7 3 .8 2.2.8 3.6-.3 5.6l-1.3 2.6-.7-3.4c-1-4.7-3.7-13.1-4.6-14.3-.4-.6-1.2-2.9-1.8-5.2-.6-2.2-2.6-6.3-4.4-9-2.7-4-4.1-5.1-8.6-6.5-6-1.9-11.2-5.2-13-8-1.4-2.3-.8-2.3 1.5-.1 1.7 1.7 4.2 2.5 5.5 1.8.3-.3-1.1-2.3-3.2-4.5s-4.7-5.9-5.7-8.3c-5.7-12.9-7.2-31.2-3.4-40 1.2-2.6 2-4.7 1.7-4.7-.2 0-1.2-.3-2.2-.6-1.4-.6-1.6-.4-.6.6 1.2 1.3.7 4-.8 4-1.6 0-.5-5 1.6-7 2.5-2.3 8.4-3 10.7-1.1 1 .7 2.4 1.1 3.2.8zm142.4.3c3.1 1.9 4.9 4.9 5.8 9.9.3 1.4.8 2.9 1.1 3.4 1 1.6.2 17.1-.9 18.4-.6.7-.7 2.4-.4 3.8.4 1.6.1 3.4-.9 4.8-.8 1.2-1.5 3.4-1.5 4.9 0 1.5-.4 3-1 3.3-.5.3-1 1.5-1 2.6 0 1-.4 1.9-1 1.9-.5 0-1 .7-1 1.5 0 2.9-8.5 10.1-13.6 11.5-5.4 1.4-12.5 5.7-12.3 7.4.3 2.5-.2 3.5-1.4 3-.9-.3-1.3-2-1.2-4.7.1-3.1-.8-6.1-3.7-11.5-3.3-6.2-3.8-8.2-3.8-13.7 0-9 1.7-16.2 5.2-21.7 1.6-2.6 2.7-5.2 2.4-5.7-.4-.5.4-1.7 1.6-2.6 1.3-.8 2.2-1.9 2.2-2.3-.4-2.1 7.6-11.7 9.7-11.7.5 0 1.6-1 2.4-2.3 2.1-2.9 8.7-3 13.3-.2zM199 110.5c0 .1-1.2 1.2-2.6 2.6l-2.6 2.4 1.2-2.6c.6-1.4 1.8-2.6 2.6-2.6s1.4.1 1.4.2zm-5.7 10.6c-.6.6-.7-.3-.4-2.3.4-2.8.6-2.9.9-.9.2 1.3 0 2.7-.5 3.2zm-22.8 114.1c8.3.6 18 1 21.7.9 5.6-.1 6.7.2 7.2 1.6.7 2.1 1.1 15.2.5 15.7-.2.2-22.7.7-50 1.1l-49.6.7-.2-9.1c-.2-8.8-.1-9.1 2.3-10.1 1.3-.5 7.3-.9 13.2-.9 5.9 0 10.9-.3 11.2-.6.9-.9 28.2-.5 43.7.7z"/><path d="M74.5 39.5c-.3.8-.7 2.2-1 3.2-2.9 9.1 2.3 36 8.3 42.6C84 87.8 89 90.4 89 89c0-.5-.5-1-1.1-1-2.1 0-4.7-3.9-8.1-12.3-3-7.3-4.2-15.6-4.1-27.5 0-9.8-.2-11.9-1.2-8.7zM227.6 62.1c-.2.8-1.2 3.9-2.2 6.9-5 16.2-13.5 24.1-22.1 20.5-3.5-1.5-7.3-6-7.3-8.6 0-1-.4-2.1-1-2.4-1.5-.9-1.2 3 .4 6.9 1.8 4.3 8 8.6 12.4 8.6 6.2 0 12.1-4.7 16.1-12.8 2.3-4.4 5.7-19 4.7-19.9-.3-.3-.8 0-1 .8zM149 163.7c-.1 3.6-3 10.2-6.1 13.5-3.1 3.3-8.9 6.8-11.4 6.8-1.1 0-2.7.5-3.5 1-1.1.7-.4 1.1 2.8 1.6 8.4 1.3 16.7 10.4 17.9 19.4.6 4.6 2.3 5.4 2.3 1.1 0-8.7 8-18 17.8-20.6 4.6-1.2 4.7-1.2 1.7-1.9-10.6-2.4-19.5-11.8-19.5-20.6 0-1.7-.4-3-1-3-.5 0-1 1.2-1 2.7zm2 14.1c0 1.1 3.5 4.8 5.7 6.1 1.6.9 1.5 1.3-1.3 3.8-1.7 1.6-3.6 3.8-4.2 4.8-.6 1.1-1.2 1.8-1.4 1.5-.2-.3-2-2.4-4.1-4.6l-3.7-4 3.7-4.1c3.7-4.1 5.3-5.1 5.3-3.5z"/></svg>